# vtk DataFile Version 3.0
d-3__ created by libgimli-v1.6.0-4-g9076db0e
ASCII
DATASET UNSTRUCTURED_GRID
POINTS 12 double
0	0	0
1.7	0	0
0	1.7	0
1.7	1.7	0
0	0	1.7
1.7	0	1.7
0	1.7	1.7
1.7	1.7	1.7
0	0	3.4
1.7	0	3.4
0	1.7	3.4
1.7	1.7	3.4
CELLS 12 60
4	0	1	3	7	
4	0	3	2	7	
4	0	2	6	7	
4	0	6	4	7	
4	0	4	5	7	
4	0	5	1	7	
4	4	5	7	11	
4	4	7	6	11	
4	4	6	10	11	
4	4	10	8	11	
4	4	8	9	11	
4	4	9	5	11	
CELL_TYPES 12
10 10 10 10 10 10 10 10 10 10 10 10 
CELL_DATA 12
SCALARS Marker double 1
LOOKUP_TABLE default
1 1 1 1 1 1 1 1 1 1 1 1 
